<?xml version="1.0" standalone="no"?>
<!DOCTYPE svg PUBLIC "-//W3C//DTD SVG 20010904//EN"
 "http://www.w3.org/TR/2001/REC-SVG-20010904/DTD/svg10.dtd">
<svg version="1.0" xmlns="http://www.w3.org/2000/svg"
 width="54.000000pt" height="53.000000pt" viewBox="0 0 263.000000 213.000000"
 preserveAspectRatio="xMidYMid meet">

<g transform="translate(0.000000,213.000000) scale(0.100000,-0.100000)"
fill="#000000" stroke="none">
<path d="M0 1065 l0 -1065 1315 0 1315 0 0 1065 0 1065 -1315 0 -1315 0 0
-1065z m1000 519 l0 -395 38 31 c20 17 143 111 272 210 129 99 251 192 270
208 19 15 94 72 165 126 101 76 116 85 65 39 -72 -65 -614 -549 -729 -652 -41
-36 -109 -97 -150 -134 -42 -37 -105 -82 -141 -100 -63 -31 -68 -32 -195 -32
-111 0 -138 3 -185 23 -62 25 -143 83 -174 124 l-20 28 30 31 c16 17 60 58 97
91 l68 61 37 -35 c20 -20 47 -41 60 -48 37 -19 105 -17 136 3 54 36 56 53 56
452 l0 365 150 0 150 0 0 -396z m454 -552 c65 -106 119 -192 121 -190 1 2 46
75 100 163 54 88 111 181 127 208 l30 47 159 0 159 0 0 -545 0 -545 -150 0
-150 0 0 311 0 311 -137 -211 c-76 -116 -140 -211 -143 -211 -3 0 -66 93 -140
207 l-135 206 -3 -307 -2 -307 -148 3 -147 3 -3 337 c-1 186 -5 338 -8 338 -3
0 -166 -121 -362 -268 -196 -147 -364 -271 -372 -276 -9 -4 -8 -2 2 7 9 7 153
135 320 284 773 691 741 663 753 645 6 -9 65 -104 129 -210z"/>
</g>
</svg>
